# xmcd
#
# Track frame offsets:
#	150
#	39461
#	67211
#	94127
#	124146
#	155275
#	189211
#	219674
#	249953
#	292301
#
# Disc length: 4408 seconds
#
# Revision: 1
# Processed by: cddbd v1.5.2PL0 Copyright (c) Steve Scherf et al.
# Submitted via: audiograbber 1.83.01
#
DISCID=9311360a
DTITLE=Hannes Jaenicke - Die grosse Volksverarschung CD2
DYEAR=2013
DGENRE=Hörbuch
TTITLE0=0201
TTITLE1=0202
TTITLE2=0203
TTITLE3=0204
TTITLE4=0205
TTITLE5=0206
TTITLE6=0207
TTITLE7=0208
TTITLE8=0209
TTITLE9=0210
EXTD=
EXTT0=
EXTT1=
EXTT2=
EXTT3=
EXTT4=
EXTT5=
EXTT6=
EXTT7=
EXTT8=
EXTT9=
PLAYORDER=
